<svg width="139" height="29" viewBox="0 0 139 29" fill="none" xmlns="http://www.w3.org/2000/svg">
<rect y="1" width="67" height="27" fill="black"/>
<path d="M8.70597 23H3.59233L9.35369 5.54545H15.831L21.5923 23H16.4787L12.6605 10.3523H12.5241L8.70597 23ZM7.75142 16.1136H17.3651V19.6591H7.75142V16.1136ZM38.3757 5.54545V23H34.4212L28.1143 13.8295H28.0121V23H23.2734V5.54545H27.2962L33.5007 14.6818H33.6371V5.54545H38.3757ZM40.1399 9.36364V5.54545H55.3104V9.36364H50.0604V23H45.3899V9.36364H40.1399ZM61.8324 5.54545V23H57.0938V5.54545H61.8324Z" fill="white"/>
<path d="M73.4727 23V5.54545H78.2113V12.3636H84.484V5.54545H89.2227V23H84.484V16.1818H78.2113V23H73.4727ZM96.0067 23H90.8931L96.6545 5.54545H103.132L108.893 23H103.779L99.9613 10.3523H99.8249L96.0067 23ZM95.0522 16.1136H104.666V19.6591H95.0522V16.1136ZM107.894 9.36364V5.54545H123.064V9.36364H117.814V23H113.144V9.36364H107.894ZM124.848 23V5.54545H137.427V9.36364H129.586V12.3636H136.779V16.1818H129.586V19.1818H137.393V23H124.848Z" fill="black"/>
</svg>
